<svg id="Layer_1" xmlns="http://www.w3.org/2000/svg" viewBox="0 0 2383.9 1683.8"><style>.st0{fill:#FFF}</style><path class="st0" d="M1464.7 240c-137.5-54-288.7-13.5-382.1 90.3l-364.1 390c-4.9 5.2-2.6 11.8 3.3 12.7l97 6c7.8.5 8.7 7.2 4.8 11.7l-237.2 255.8c-4.1 4.4.9 11.4 6.5 9.6l338.6-107c7.2-2.5 12.7 3.9 9.6 9.5L896 998.8c-2.3 4.6 2.1 10.8 7.7 10.4l488.2-108.7c116.6-18.5 220.8-96.3 267.1-214.2 69.7-177-17.4-376.8-194.3-446.3zm54.2 352.2c-.3.1-.4.2-.6.3L1409.2 637l-3.3 1.5-26.6 121.5c-1.8 4.2-7.1 5.1-10.7 1.7l-79.4-93.9-.4-.3-448 192.3c-.4.2-.8.3-1.3.3-1.7 0-3-1.3-3-3 0-.9.5-1.8 1.2-2.4l387.4-289.9-49-111.9c-2.4-5.1 2.1-10.5 8.1-9l118.7 29.2 92.1-82c4-3.1 9.4-.9 10.4 4l9 123.2 106.3 62.2c4.6 2.8 3.9 9.6-1.8 11.7zM174.6 1371.6l31.5-153.5-72.5 26.9 83.5-80.3 12.7-61.7.1-.2h-97.5L58.1 1460h237.5l19-88.4zm296.3-140.3L421.5 1460H330l45.8-228.7h95.1zm19.5-82.6c0 28.6-23.1 52.1-53 52.1-28.1 0-44-17.7-44-43.5 0-30.4 24-53.1 53-53.1 27.2 0 44 17.7 44 44.5zm413.3 156.8h-53.9L817.2 1460h-91.6l32.6-154.6h-31.3l16.3-74.3H774l5-21.8c10.4-46.2 30.9-76.6 72.1-91.6 41.1-14.9 97.9-11.3 97.9-11.3l-6.3 30.4c-48 10.9-66.1 36.3-75.2 85.6l-1.8 8.6h53.9l-15.9 74.5zm431.5 17.6c-9.5-3.6-19.5-5.4-36.3-5.4-23.1 0-38.5 12.7-43.5 36.7l-22.1 105.6h-91.6l47.7-228.8h91.1l-4.2 26.1c15.9-17.2 37.6-33.1 62.1-33.1 6.8 0 13.1 1 17.7 2.3l-20.9 96.6zm75.2-198.9l95.1-17.7-30.3 143.2c29-20.4 44.4-25.8 70.3-25.8 40.3 0 62.5 26.3 62.5 65.3 0 5.5-1 15.9-2.7 24.5L1574 1460h-91.6l26.7-125.1c.9-4.1 1.4-7.7 1.4-10.4 0-11.3-6.3-18.1-17.7-18.1-7.7 0-13.2 1.4-17.7 4.5-10.9 7.3-16.7 15.8-20.4 32.6l-24.5 116.5h-91.5l71.7-335.8zm546.1 335.8h-91.6l71.6-335.4 95.1-18.1-75.1 353.5zm216.1-15c-15.4 14.1-37.2 22.7-60.7 22.7-62.5 0-94.3-44.4-94.3-103.3 0-74.8 69.8-140.9 154.5-140.9 13.6 0 26.3 2.7 35.4 7.2l23.1-106.5 95.2-17.7-71.8 353.3h-86l4.6-14.8zm2.8-58.8l17.2-85.7c-5.4-3.6-12.3-5.4-21.3-5.4-36.3 0-60.3 26.7-60.3 66.2 0 23.5 14 34.4 37.2 34.4 9.5 0 20.3-3.7 27.2-9.5zm-1606.5-11c-.4 2.2-.9 6.1-.9 8.3 0 13.8 9.6 18.6 34.7 18.6 22.6 0 67.9-9.2 86.5-15.7l-13.2 67.4c-23.9 8.7-61.2 13.4-91.1 13.4-70.2 0-104.1-19.1-104.1-82.8 0-62.5 29-160.1 141-160.1 71.1 0 92.4 32.1 92.4 65.9 0 43.8-37.7 81.1-145.3 85zm47.6-93.2c-22.8 0-35.9 18.9-41.2 40.7 45.1 0 58.7-14.1 58.7-25.7 0-8.2-7.3-15-17.5-15zm378 93.2c-.4 2.2-.9 6.1-.9 8.3 0 13.8 9.6 18.6 34.7 18.6 22.6 0 67.9-9.2 86.5-15.7l-13.2 67.4c-23.9 8.7-61.2 13.4-91.1 13.4-70.2 0-104.1-19.1-104.1-82.8 0-62.5 29.1-160.1 141-160.1 71.1 0 92.4 32.1 92.4 65.9 0 43.8-37.7 81.1-145.3 85zm47.7-93.2c-22.8 0-35.9 18.9-41.2 40.7 45.1 0 58.6-14.1 58.6-25.7 0-8.2-7.3-15-17.4-15zm672.4 93.2c-.4 2.2-.9 6.1-.9 8.3 0 13.8 9.6 18.6 34.7 18.6 22.6 0 67.9-9.2 86.5-15.7l-13.2 67.4c-23.9 8.7-61.2 13.4-91.1 13.4-70.3 0-104.2-19.1-104.2-82.8 0-62.5 29.1-160.1 141-160.1 71.1 0 92.4 32.1 92.4 65.9.2 43.8-37.6 81.1-145.2 85zm47.7-93.2c-22.8 0-35.9 18.9-41.2 40.7 45.1 0 58.7-14.1 58.7-25.7-.1-8.2-7.3-15-17.5-15z"/></svg>
